<svg width="25" height="35" viewBox="0 0 25 35" fill="none" xmlns="http://www.w3.org/2000/svg">
<rect y="2.17392" width="22.448" height="32.4906" rx="2.36295" fill="#3662E3"/>
<rect x="2.84734" y="0.295369" width="21.8573" height="31.8998" rx="2.06758" fill="white" stroke="#3662E3" stroke-width="0.590738"/>
<rect x="4.91492" y="23.6295" width="10.6333" height="2.36295" rx="1.18148" fill="#3662E3"/>
<rect x="4.91492" y="14.1777" width="17.7221" height="2.36295" rx="1.18148" fill="#3662E3"/>
<rect x="4.91492" y="18.9036" width="17.7221" height="2.36295" rx="1.18148" fill="#3662E3"/>
<path d="M18.5019 7.08782C18.5019 9.6973 16.386 11.8127 13.776 11.8127C11.1659 11.8127 9.05005 9.6973 9.05005 7.08782C9.05005 4.47834 11.1659 2.36295 13.776 2.36295C16.386 2.36295 18.5019 4.47834 18.5019 7.08782Z" fill="#E0E8FF"/>
<path d="M15.6138 6.03785C15.6138 7.05265 14.791 7.8753 13.776 7.8753C12.7609 7.8753 11.9381 7.05265 11.9381 6.03785C11.9381 5.02305 12.7609 4.2004 13.776 4.2004C14.791 4.2004 15.6138 5.02305 15.6138 6.03785Z" fill="#3662E3"/>
<path d="M10.0119 9.94909C10.4982 9.20463 11.9402 8.66483 13.6433 8.66483C15.4933 8.66483 17.0352 9.30177 17.3788 10.1461C16.5119 11.167 15.2189 11.8147 13.7746 11.8147C12.2394 11.8147 10.8751 11.0829 10.0119 9.94909Z" fill="#3662E3"/>
</svg>
