<svg width="39" height="54" viewBox="0 0 39 54" fill="none" xmlns="http://www.w3.org/2000/svg">
<rect y="6.78259" width="32.2174" height="46.6305" rx="3.39131" fill="#0B0DBA"/>
<rect x="7.20651" y="0.423913" width="31.3696" height="45.7826" rx="2.96739" fill="white" stroke="#0B0DBA" stroke-width="0.847827"/>
<rect x="10.1739" y="33.913" width="15.2609" height="3.39131" rx="1.69565" fill="#0B0DBA"/>
<rect x="10.1739" y="20.3479" width="25.4348" height="3.39131" rx="1.69565" fill="#0B0DBA"/>
<rect x="10.1739" y="27.1305" width="25.4348" height="3.39131" rx="1.69565" fill="#0B0DBA"/>
<path d="M29.6739 10.1724C29.6739 13.9176 26.6372 16.9536 22.8913 16.9536C19.1453 16.9536 16.1086 13.9176 16.1086 10.1724C16.1086 6.42732 19.1453 3.3913 22.8913 3.3913C26.6372 3.3913 29.6739 6.42732 29.6739 10.1724Z" fill="#E6E6FF"/>
<path d="M25.5289 8.66552C25.5289 10.122 24.348 11.3026 22.8913 11.3026C21.4345 11.3026 20.2536 10.122 20.2536 8.66552C20.2536 7.20908 21.4345 6.02841 22.8913 6.02841C24.348 6.02841 25.5289 7.20908 25.5289 8.66552Z" fill="#0B0DBA"/>
<path d="M17.4891 14.2789C18.1871 13.2105 20.2565 12.4358 22.7009 12.4358C25.3561 12.4358 27.5689 13.3499 28.0621 14.5617C26.8179 16.0268 24.9622 16.9565 22.8893 16.9565C20.6859 16.9565 18.728 15.9062 17.4891 14.2789Z" fill="#0B0DBA"/>
</svg>
